<?xml version="1.0" encoding="UTF-8"?>
<!DOCTYPE svg PUBLIC "-//W3C//DTD SVG 1.1//EN" "http://www.w3.org/Graphics/SVG/1.1/DTD/svg11.dtd">
<!-- Creator: CorelDRAW 2017 -->
<svg xmlns="http://www.w3.org/2000/svg" xml:space="preserve" width="5.5878mm" height="5.5878mm" version="1.1" style="shape-rendering:geometricPrecision; text-rendering:geometricPrecision; image-rendering:optimizeQuality; fill-rule:evenodd; clip-rule:evenodd"
viewBox="0 0 558.78 558.78"
 xmlns:xlink="http://www.w3.org/1999/xlink">
 <defs>
  <style type="text/css">
   <![CDATA[
    .fil0 {fill:none}
    .fil1 {fill:black}
   ]]>
  </style>
 </defs>
 <g id="Capa_x0020_1">
  <metadata id="CorelCorpID_0Corel-Layer"/>
  <rect class="fil0" x="-0" y="-0" width="558.79" height="558.79"/>
  <g id="_2040390034016">
   <g>
    <path class="fil1" d="M225.2 236.11l0.14 0.14c-0.01,-0.01 -0.18,-0.09 -0.14,-0.14zm56.32 -236.11l8.14 0c11.24,0.59 22.63,3.33 26.43,5.82 3.06,2.01 4.32,3.32 5.81,6.69l3.7 8.33c2.09,0 3.65,-0.58 5.22,-0.8 11.31,-1.59 23.85,-0.01 33.34,4.8 15.05,7.63 7.71,21.16 7.71,33.96 12.68,6.71 26.81,7.31 30.64,24.43 0.39,1.72 0.65,3.54 0.82,5.45l0 10.39c-1.69,23.71 -13.44,54.74 -18.41,74.63 -7.69,30.76 -18.26,32.45 -27.33,55.07 -4.45,11.1 -5.45,21.81 -7.2,33.99 -1.17,8.15 -0.4,17.54 -1.53,25.79 -0.53,3.85 -0.1,9.17 -0.52,12.91l-0.54 13.35c0.06,9.08 -0.94,17.95 -0.91,26.86 0.02,2.97 -0.45,3.78 -0.49,6.46l0.01 40.77c0,5.79 1.86,13.34 1.86,18.5 -3.48,0 -7.35,0.63 -11.02,1.01 -3.16,0.32 -7.41,1.03 -10.72,1.31 0.89,-1.21 2.34,-1.68 3.76,-2.25 1.56,-0.63 2.3,-1.01 3.79,-1.76 2.48,-1.25 6.26,-2.01 6.84,-4.74 1.2,-5.57 0.13,-15.8 0.81,-21.87 0.76,-6.85 -0.64,-15.71 0.13,-22.55 0.74,-6.54 0.4,-14.99 0.4,-22.29 0,-29.18 1.89,-61.45 -0.47,-89.82 -9.85,-2.29 -5.37,-2.77 -18.96,-2.77 0.38,-0.34 0.49,-0.44 1.02,-0.83l14.62 -8.99c2.87,-1.81 4.84,-3 7.44,-5.05 3.39,-2.68 2.82,-4.19 5.06,-7.43 2.67,-3.87 6.43,-6.48 9.68,-9.76 8.6,-8.67 6.94,-8.56 8.16,-16.84 0.49,-3.32 1.23,-6.94 2.72,-9.77 2.65,-5.01 8.13,0.9 11,-20.47 0.96,-7.11 3.18,-12.69 5.8,-19.21 4.38,-10.94 6.21,-18.29 6.21,-31.28 -1.42,1.04 -1.42,2.04 -2.18,3.84 -3.51,8.31 -9.77,17.61 -15.2,24.6 -9.08,11.7 -21.43,17.14 -35.54,21.85 -10.71,3.57 -24.23,5.36 -31.29,14.52 -0.94,1.23 -1.54,1.65 -2.5,3.05l-11.38 16.86 -13.61 -23.42c-5.26,-8.59 -11.33,-16.25 -18.91,-22.74 -0.85,-0.73 -1.82,-1.36 -2.64,-1.98l-5.36 -3.9c-11.83,-7.89 -25.41,-13.7 -41.37,-13.7 0.51,-1.9 4.11,-3.72 7.02,-7.33 8.75,-10.82 -5.9,-23.23 -6.55,-31.1 1.69,1.14 4.13,5.31 5.72,7.24l7.3 5.2c8.97,7.33 26.18,12.9 37.4,13.49 6.62,0.35 11.61,-0.41 17.92,-1.52 1.55,-0.27 3.17,-0.79 5.22,-0.79 -3.47,-6.57 -9.94,-3.54 -15.64,-7.5 -1.6,-1.12 -2.98,-1.66 -4.87,-2.53 -8.69,-4.01 -10.75,-6.72 -15.12,-14.97 6.61,-9.88 10.86,-10.99 12.5,-13.43 -1.73,-2.58 -4.75,-4.3 -7.06,-6.36 -2.26,-2.02 -5.01,-4.1 -7.56,-5.86 -11.15,-7.68 -24.86,-16.31 -39.66,-13.38 -4.34,0.86 -14.78,5.55 -16.05,10.32 1.39,0.33 1.75,0.6 2.87,1.3 1.04,0.64 1.66,0.94 2.68,1.48 -2.47,3.69 -12.55,6.09 -20.87,34.67 -1.41,4.84 -2.55,9.6 -3.61,14.91 -5.08,25.39 -1.05,42.57 11.38,57.97 9.69,11.99 21.94,21.39 34.31,30.48 14.12,10.38 26.72,16.21 43.62,21.17 2.45,0.72 4.88,1.29 7.35,1.91 1.89,0.48 5.94,1.15 7.4,1.85 -1.66,2.27 -6.47,5.74 -9.54,10.36 -5.28,7.97 -4.8,17 -4.8,28.07 0,18.71 1.94,120.8 0.59,130.67 -0.49,3.55 -0.06,9.06 -0.11,12.86 -0.03,2.64 -0.5,3.2 -0.49,5.99 0.01,2.78 -0.41,3.95 -0.45,6.03 -1.44,-0.76 -2.42,-1.51 -3.73,-2.3 -8.83,-5.32 -17.3,-10.66 -28.66,-10.66 0,3.47 -0.1,6.5 0.39,9.33 2.84,16.64 11.34,34.4 17.52,50.06 3.66,9.26 7.63,17.93 11.24,27.17 2.21,5.67 0.77,3.79 13.74,5.7 8.14,1.19 8.09,2.3 14.48,-1.99 2.24,1.51 5.54,2.32 9.25,2.32 0.35,-1.29 1.88,-2.99 2.69,-4.26 4.59,-7.18 7.84,-14.7 11.06,-22.72 3.83,-9.54 6.73,-20.56 11.23,-29.51 1.81,-3.59 2.83,-4.9 5.67,-7.75 1.61,-1.6 4.96,-6.1 6.83,-6.6 -0.61,1.27 -1.04,2.85 -1.65,4.37 -0.64,1.58 -1.03,2.61 -1.54,4.02 -1.02,2.83 -2.19,5.54 -3.29,8.28 -14.13,35.33 -28.39,70.84 -45.8,104.63 -1.06,2.06 -2.82,5.27 -4.63,6.48l-5.24 -8.18c-0.85,-1.58 -1.37,-3.23 -2.16,-4.78 -0.78,-1.54 -1.21,-2.78 -2.01,-4.48 -2.88,-6.17 -5.08,-12.24 -7.87,-18.51 -10.97,-24.7 -22.18,-48.8 -32.81,-73.64 -2.78,-6.49 -5.15,-12.39 -7.56,-19.29 -9.11,-26.09 -7.53,-42.79 -7.57,-72.06 0,-2.86 -0.49,-3.58 -0.49,-6.45l-0.44 -26.41c0.01,-2.82 -0.35,-3.79 -0.47,-6.01 -0.12,-2.09 0.11,-4.39 0,-6.48l-1.32 -18.59c-3.09,-29.43 -7.72,-42.93 -16.32,-69.78 -0.47,-1.46 -1.18,-3.28 -1.33,-5.15 8.85,2.06 23.95,14.26 27.76,15.28l-35.28 -29.52c-2.23,-1.96 -4.33,-4.32 -6.48,-6.48 -1.19,-1.19 -2.04,-2.05 -3.24,-3.23 -7.66,-7.59 -14.03,-17.09 -18.12,-27.24 -6.91,-17.11 -3.27,-38.66 1.03,-55.84 3.56,-14.28 9.52,-35.91 16.83,-47.97 1.87,-3.09 3.05,-4.9 5.57,-7.39 7.43,-7.34 11.51,-0.33 13.82,-12.1 0.7,-3.56 1.12,-7.58 1.74,-11.22 1.43,-8.38 2.05,-13.89 6.47,-19.46 8.71,-10.96 38.19,-17.79 52.48,-5.13 1.52,1.35 1.61,2.35 3.12,3.36 0.67,-2.51 3.64,-5.33 5.42,-7.07 3.2,-3.12 9.07,-4.58 15.73,-4.97zm-57.7 235.18l0 0zm0 0l-0.93 -0.46 0.93 0.46zm-0.93 -0.46l-0.46 -0.46 0.46 0.46zm134.64 -91.2c-0.26,-1.1 -0.49,-2.33 -0.93,-3.24 -6.05,-1.41 -2.25,-0.84 -9.72,4.17 -6.6,-13.78 13.48,-45.39 21.94,-56.3 2.07,-2.66 10.3,-11.3 13.69,-11.3 6.37,0 9.25,5.92 9.25,12.04 0,13.65 -8.49,30.48 -15.08,40.47 -1.63,2.46 -3.14,4.13 -4.81,6.29 -3.66,4.75 -7.71,7.87 -14.34,7.87zm-97.63 -53.24c2.05,-1.37 2.84,-3.07 5.42,-4.3 8.38,-3.99 7.47,-2.91 14.92,1.54 4.6,2.75 7,5.4 10.2,7.85 1.16,0.89 2.07,1.74 3.13,2.89 1.43,1.56 4.56,5.18 4.74,7.3 -5.63,0.47 -2.57,2.46 -11.84,1.19 -4.38,-0.61 -9.09,-0.53 -12.24,-2.1 -6.04,-3.03 -9.57,-3.77 -12.33,-8.96 -1.12,-2.1 -1.17,-3.56 -2,-5.41zm84.21 -59.72c12.23,0 21.74,0.53 21.74,15.28 0,10.71 -9.34,36.16 -12.59,48.97 -2.79,11.02 -9.82,37.14 -24.88,37.14 -5.09,0 -10.75,-3.03 -13.89,-5.09 -4.61,-3.03 -3.56,-3.34 -2.27,-14.78 0.62,-5.44 1.75,-11.34 2.61,-16.37 2.25,-13.1 5.68,-35.31 12.06,-44.88 6.75,-10.13 14.08,-7.3 20.45,-7.78 3.81,-0.28 3.49,-1.76 5.51,-2.81 0.09,-0.05 0.24,-0.11 0.32,-0.15l-17.39 -5.36c0.66,-2.48 5.73,-4.17 8.33,-4.17zm-118.44 -17.13c7.25,-0.6 27.8,-11.96 30.11,15.7 0.85,10.22 0.42,22.39 0.42,33.37l-13.22 -7.6c-11.14,-6.83 -14.3,-9.53 -29.8,-9.53 -3.64,0 -5.27,0.47 -8.8,0.47 4.25,-18.22 19.13,-25.53 35.83,-28.04 2.47,-0.37 2.4,0.37 3.5,-1.13 -2.92,0 -5.99,-0.75 -8.99,-1.19 -3.23,-0.47 -5.76,-1.12 -9.05,-1.12l0 -0.93zm66.62 -4.17c12.3,0 22.67,-0.33 22.67,14.82 0,10.57 -2.96,49.37 -4.43,59.92 -0.44,3.2 -0.84,6.68 -1.08,9.56 -0.29,3.44 -0.97,6.95 -0.97,10.15 -2.18,-0.59 -12.89,-11.13 -15.61,-13.54 -1.79,-1.58 -3.52,-2.79 -5.33,-4.4 -3.89,-3.48 -15,-11.53 -20.24,-14 -1.13,-0.54 -2.77,-0.9 -2.77,-2.32 0,-9.52 -0.64,-20.37 1.75,-29.27 3.72,-13.89 19.34,-14.25 32.03,-14.25 -0.85,-1.16 -5.66,-2.75 -7.27,-3.38l-6.95 -2.76c-0.08,-0.04 -0.24,-0.14 -0.3,-0.17 -0.06,-0.04 -0.2,-0.11 -0.29,-0.17 7.25,0 13.61,-0.93 21.28,-0.93 -1.28,-3.54 -17.27,-5.37 -20.55,-5.82 -2.66,-0.37 -5.48,-0.66 -8.13,-0.66 1.16,-1.58 4.98,-1.94 7.06,-2.19 3.23,-0.4 5.74,-0.59 9.13,-0.59z"/>
    <path class="fil1" d="M310.8 425.46c-0.42,-1.57 -3.79,-6.33 -5.09,-8.8 -6.29,0 -11.53,-0.92 -17.58,-0.92 1.56,2.13 19.75,9.48 22.67,9.72z"/>
    <path class="fil1" d="M316.81 126.85c5.49,1.28 3.9,1.86 10.64,1.86 2.82,0 3.38,-0.47 6.02,-0.47l0 -0.92c-5.75,-1.34 -1.58,-2.78 -13.42,-2.78 -1.33,0 -2.44,1.62 -3.24,2.31z"/>
   </g>
   <polygon class="fil1" points="215.03,92.59 214.77,91.6 "/>
  </g>
 </g>
</svg>
