<?xml version="1.0" encoding="UTF-8"?>
<!DOCTYPE svg PUBLIC "-//W3C//DTD SVG 1.1//EN" "http://www.w3.org/Graphics/SVG/1.1/DTD/svg11.dtd">
<!-- Creator: CorelDRAW 2017 -->
<svg xmlns="http://www.w3.org/2000/svg" xml:space="preserve" width="5.5878mm" height="5.5878mm" version="1.1" style="shape-rendering:geometricPrecision; text-rendering:geometricPrecision; image-rendering:optimizeQuality; fill-rule:evenodd; clip-rule:evenodd"
viewBox="0 0 558.78 558.78"
 xmlns:xlink="http://www.w3.org/1999/xlink">
 <defs>
  <style type="text/css">
   <![CDATA[
    .fil0 {fill:none}
    .fil1 {fill:black}
   ]]>
  </style>
 </defs>
 <g id="Capa_x0020_1">
  <metadata id="CorelCorpID_0Corel-Layer"/>
  <rect class="fil0" x="-0" y="-0" width="558.79" height="558.79"/>
  <path class="fil1" d="M420.42 188.04l6.02 3.21c6.31,-9.72 11.58,-19.8 21.04,-26.18 12.1,56.23 47.28,71.85 -4.09,123.59l-38.23 -21.64c6.56,13.76 13.48,18.82 21.46,36.55l-51.44 -33.91 -2.95 5.61c15.2,15.18 32.12,30.66 43.19,49.96l-26.56 46.69c-24.28,-2.5 -33.79,-10.55 -50.63,-13.13 10.05,12.88 13.05,13.62 25.81,24.99 -16.29,-3.82 -28.69,-11.17 -39.09,-20.64 -9.6,-8.74 -20.53,-24.54 -21.62,-32.6 -6.14,-3.93 -8.32,2.39 -5.95,-5.35 -1.52,28.53 30.16,62.09 46.36,74.14 -7.18,2.94 7.34,4.46 -10.58,1.22 -9.69,-1.75 -15.52,-10.28 -19.4,-14.87l-0.58 5.36c-0.02,0.33 -0.01,1.49 -0.04,1.82l-0.69 6.77c-8.75,-15.26 -17.67,-15.78 -29.37,-47.66 -7.62,-20.74 -12.21,-42.7 -9.03,-66.72 6.88,-51.76 33.43,-45.98 80.27,-76.37 10.23,8.09 22.68,24.22 40.69,28.22 -4.38,-9.56 -8.65,-15.05 -15.02,-26.07l20.29 5.05c-0.79,-0.57 -1.72,-1.17 -2.51,-1.76l-17.31 -18.23c15.31,-10.93 25.56,-13.12 34.11,-35.8l-10.37 6.54c-43.93,27.53 -142.78,-12.29 -114.75,-76.69 4.6,9.67 1.11,15.6 5.3,28.18 4.01,12.06 7.67,11.13 12.69,23.21 20.23,3.94 33.03,-1.19 52.82,-0.49l2.39 -45.28 60.77 10.64c20.14,27.57 15.38,49.21 -3,81.64zm-109.74 -55.14c-5.54,-11.93 -15.41,-25.03 -13.74,-43.46l54.32 5.27c1.62,12.43 2.42,26.01 -4.07,36.84l-36.51 1.35zm12.51 -53.53c-3.03,-20.01 -15.3,-38.95 6.45,-50.44 15.42,-8.15 40.41,-8.46 58.13,-4.05 11.84,19.41 10.66,31.39 4.16,59l-68.74 -4.51zm-137.43 450.33c-3.61,-14.03 -4.88,-46.44 -0.62,-61.76l32.08 -5.24 -28.18 -4.12c0.97,-0.34 2.63,-2.16 3.06,-1.25l27.07 -6.69c14.72,-2.64 17.4,-5.31 31.48,-3.02 -0.79,-0.69 -2.05,-2.55 -2.66,-1.71l-11.43 -4.12c-41.99,-5.57 -56.19,20.13 -76.83,-19.97 -6.18,-12 -10.77,-18.03 -13.89,-32.27 -22.73,-17.95 -50.65,-126.66 -58.24,-135.53 -13.72,-16.05 -10.94,-12.22 -5.83,-38.29 1.93,-9.84 6.26,-39 9.1,-46.29 3.18,-8.15 30.87,-36.61 64.58,-34.03 1.99,-45.02 31.15,-55.73 71.26,-55.9 20.62,-28.33 29.1,-42.82 75.44,-33.45l9.96 30.75c-17.13,4.49 -29.12,-0.09 -35.27,19.31 -17.53,55.28 53.75,87.22 58.62,93.83 -4.13,21.57 -24.02,25.14 -46.15,21.69 -3.45,-4.25 -48.75,-98.47 -50.42,-104.09 6.43,26.16 17,54.96 25.95,82.13 11.03,33.47 -17.44,62.24 -54.9,49.29l-36.98 -63.33c-1.66,16.97 13.77,43.42 19.3,61.84 -19.03,20.75 -39.98,25.32 -56.72,2.75 -12.24,-16.51 -27.53,-32.66 -35.97,-50.7 1.95,16.42 11.03,36.07 19.23,46.77l-24.55 4.49c34,11.95 41.42,11.12 40.55,48.26l15.28 -12.62c11.12,12.99 15.31,31.13 24.12,46.6l-3.57 -38.01c25.99,0.11 36.74,-5.01 49.05,14.76 6.94,11.16 16.63,33.28 14.35,47.68 12.96,-1.43 2.64,3.04 13.45,-8.93 2.55,34.42 15.94,55.38 27.08,79.09 -6.65,-33.51 -17.55,-53.19 -14.87,-94.4 3.21,5.99 -0.09,-3.86 3.93,9.53 10.06,33.61 0.61,39.45 35.73,84.52 3.78,4.85 4.66,6.86 9.35,12.81l11.33 14.5 -39.97 3.02 21.49 9.57c30.52,-0.26 61.57,31.15 60.34,56.66 5.8,9.33 3.1,22.57 2.18,36.49 36.16,5.63 28.62,6.97 19.97,-66.78 -5.62,-47.97 -2.88,-50.23 21.33,-90.39 14.22,-23.6 97.82,-142.08 98.17,-148.02 0.57,-9.76 -23.82,-73.24 -28.56,-84.77 -11.64,-28.3 -22.72,-56.52 -45.11,-73.18 -16.75,-12.47 -7.2,6.26 -12.72,-17.43 -2.03,-8.66 -1.77,-13.19 -4.72,-23.32 -21.53,-74 -94.78,-34.16 -104.14,-11.34 -62.96,-24.55 -76.8,20.95 -91.37,27.25 -18.93,8.19 -22.63,-4.63 -48.74,16.14 -16.56,13.17 -25.15,16 -27.35,42.82 -20.7,-4.03 -15.92,-2.63 -51.81,25.04 -17.41,13.41 -5.33,19.29 -23.14,61.32 -17.57,41.45 -15.63,21.16 22.84,110.12 59.94,138.61 61.79,105.89 70.94,233.3 29.96,10.09 26.16,-1.92 27.98,-3.77l-1.88 -17.61z"/>
 </g>
</svg>
