<?xml version="1.0" encoding="UTF-8"?>
<!DOCTYPE svg PUBLIC "-//W3C//DTD SVG 1.1//EN" "http://www.w3.org/Graphics/SVG/1.1/DTD/svg11.dtd">
<!-- Creator: CorelDRAW 2017 -->
<svg xmlns="http://www.w3.org/2000/svg" xml:space="preserve" width="5.5878mm" height="5.5878mm" version="1.1" style="shape-rendering:geometricPrecision; text-rendering:geometricPrecision; image-rendering:optimizeQuality; fill-rule:evenodd; clip-rule:evenodd"
viewBox="0 0 558.78 558.78"
 xmlns:xlink="http://www.w3.org/1999/xlink">
 <defs>
  <style type="text/css">
   <![CDATA[
    .fil0 {fill:none}
    .fil1 {fill:black}
   ]]>
  </style>
 </defs>
 <g id="Capa_x0020_1">
  <metadata id="CorelCorpID_0Corel-Layer"/>
  <rect class="fil0" x="-0" y="-0" width="558.79" height="558.79"/>
  <path class="fil1" d="M243.67 209.81l0 0zm45.38 -204.18l1.87 0c10.73,0.14 20.81,2.8 29.67,10.05 6.99,5.72 14.14,14.5 17.03,16.9l10.1 8.99c16.51,12.32 21.62,9.43 37.6,16.12 18.3,7.67 20.43,31.45 32.4,47.46 2.2,2.94 3.84,4.61 7,6.44 1.44,0.84 2.85,1.51 4.38,1.98 15.09,4.62 13.82,20.81 20.95,38.41 1.21,2.98 2.41,6.76 3.94,9.49 8.23,14.72 22.31,29.27 24.58,42.56 0.26,1.52 0.45,3.01 0.58,4.47l0 9.22c-1.26,13.47 -7.96,24.41 -15.83,36.32l-5.38 7.34c-1.11,1.56 -1.81,2.16 -3.14,3.93l-8.58 11.21c-22.1,29.45 -19.32,43.47 -28.45,58.47 -7.4,12.16 -14.82,18.47 -26.11,26.91l-19.99 13.22c-5.21,3.47 -10.28,7.08 -14.68,11.48 -2.22,2.23 -4.76,4.45 -6.65,6.78 -14.58,18.05 -23.12,40.48 -31.5,61.79 -8.7,22.12 -16.22,45.43 -25.07,67.5 -3.45,8.61 -13.56,28.41 -22.52,30.49 0,-7.29 2.11,-15.49 3.37,-21.37 2.08,-9.77 4.91,-19.42 8.66,-28.78 1.14,-2.84 2.15,-5.62 3.26,-8.76 4.98,-14.11 13.89,-29.87 19.06,-42.42l8.08 -16.65c4.8,-9.6 10.95,-24.5 15.96,-32.8 7.88,-13.04 13.28,-23.86 27.27,-34.23 4.43,-3.27 9.27,-7.03 14.29,-9.74 5.53,-2.99 10.51,-5.99 15.32,-9.42 2.72,-1.94 4.25,-2.78 6.91,-5.11 9.03,-7.89 15.78,-17.63 19.34,-29.42 0.72,-2.37 1.74,-7.2 2.74,-9.28 -7.95,0 -24.36,3.24 -29.71,5.65 -6.38,2.88 -17.58,9.24 -25.45,9.89 0,-27.15 20.82,-22.31 38.99,-28.87 4.32,-1.55 11.9,-5.37 14.05,-8.57 -22.45,-11.86 -40.11,-6.79 -63.83,-3.72 -30.49,3.96 -34.56,-17.03 -42.24,-33.02 -3.81,2.79 -10.47,21.69 -13.19,27.1 -4.51,8.95 -14.72,14.36 -25,14.59 0.69,-2.95 1.14,-4.85 2.35,-7.55l3.07 -6.12c1.25,-2.33 1.82,-3.86 3.2,-5.99 5.34,-8.25 14.5,-22.13 14.72,-31.92l-12.55 -10.78c-2.24,-2.27 -3.78,-3.02 -6.02,-5.29 -2.01,-2.04 -3.91,-3.6 -6.18,-5.12 -1.12,1.52 -2.09,1.78 -3.73,3.34 -8.28,7.89 -14.59,19.51 -26.5,22.27 -7.5,1.74 -8.91,1.69 -6.87,-2.5 2.93,-6.02 11.68,-22.87 13.05,-28.76 -4.47,1.04 -7.19,3.98 -10.88,6.07 -4.31,2.44 -7.97,3.11 -13.16,3.11 0,-5.14 0.68,-8.84 1.23,-12.91 0.7,-5.23 0.34,-8.78 -2.43,-11.32 -10.57,-9.73 -37.21,-3.83 -48.49,-6.66 -5.05,-1.27 -14.19,-7.82 -15.36,-12.21l28.99 0c1.82,-7.79 6.68,-22.57 12.02,-26.14 2.02,1.48 4.98,8.18 6.66,11.01 2.14,3.63 4.45,7.55 6.99,10.68l12.68 13.47c1.82,1.7 2.92,2 5.07,3.42 15.42,10.11 36.29,10.92 57.7,5.93 -0.15,-0.09 -0.39,-0.17 -0.5,-0.21 -0.11,-0.04 -0.36,-0.15 -0.51,-0.19 -0.14,-0.05 -0.36,-0.13 -0.52,-0.19l-19.38 -4.66c-5.72,-1.22 -6.66,1.04 -11.23,-2.2 -7.29,-5.16 -7.47,-5 -4.86,-18.92 0.88,-4.69 1.68,-5.51 6.14,-6.58 6.99,-1.68 12.08,-4.12 18.13,-7.32 -1.73,-7.41 -10.13,-20.32 -15.4,-26.3 -1.53,-1.73 -2.36,-2.99 -3.86,-4.61 -28.04,-30.38 -79.42,-18.39 -106.4,4.27 -13.88,11.66 -19.76,29.43 -14.44,47.22 2.58,8.61 4.45,17.4 6.74,26.47 4.51,17.85 8.06,35.75 12.99,53.43 7.06,25.29 16.69,44.92 38.76,59.48 7.02,4.64 15,7.27 22.82,10.41 3.61,1.45 7.83,2.87 11.66,4.6 3.66,1.66 9.23,1.68 10.36,5.89 -3.5,0.82 -6.04,2.13 -9.72,3.01 -19.45,4.69 -40.44,-8.91 -55.62,-18.97 -2.66,-1.76 -4.32,-3.78 -7.49,-4.52 -1.16,4.96 -7.59,15.86 -10.11,21.69 -13.6,31.46 -48.09,133.57 -70.51,148.57 -1.33,-2.52 -2,-5.29 -2.12,-8.24l0 -2.09c0.69,-17.81 18.75,-41.22 25.71,-55.83l7.99 -18.16c1.56,-3.22 2.76,-5.83 4.18,-9.24l16.56 -37.15c13.73,-30.44 19.22,-51.66 10.06,-87.04 -0.62,-2.38 -1.03,-3.36 -1.51,-5.55 -5.27,-24.09 -24.92,-78.91 -26.24,-98.83 -0.63,-9.44 -0.84,-15.16 2.22,-23.26 2.24,-5.91 6.47,-11.66 11.34,-15.53 1.52,-1.2 2.06,-2.1 3.72,-3.35 8.99,-6.77 19.39,-11.73 29.65,-16.29 24.48,-10.86 26.81,-6.54 30.73,-22.28 3.14,-12.59 6.32,-29.46 13.16,-39.84 11.61,-17.62 28.87,-25.97 49.5,-31.09 11,-2.73 21.96,-5.09 32.36,-5.23zm-5.07 137.8c-2.32,-2.66 -4.9,-7.33 -7,-10.71 -2.32,-3.74 -4.39,-7.03 -6.82,-10.84 -9.79,-15.32 -8.94,-11.54 -4.11,-23.28 4.25,-10.33 5.94,-15.63 12.99,-22.32 9,-8.54 36.97,-15.22 50.37,-19.61 7.16,-2.35 6.91,-1.57 13.88,0.65 4.55,1.44 9.04,2.74 13.47,4.18 7.56,2.44 20.19,6.16 25.14,10.21 15.78,12.91 7.06,29.75 24.75,45.2 8.69,7.59 12.56,4.24 19.1,16.27 4.06,7.46 7.02,16.78 10.32,25.04 9.14,22.85 18.4,25.42 27.42,42.5 13.86,26.27 -11.81,29.63 -28.79,69.04 -6.55,0.01 -16.52,0.22 -21.19,-2.67 0.9,-5.09 8.44,-8.4 9.99,-15.66 -46.42,-2.67 -40.37,9.63 -64.28,13.66 -23.75,3.99 -48.2,-13.34 -34.16,-35.43 6.87,-10.83 28,-27.32 44.81,-32.95 9.73,-3.27 20.12,-5.9 30.03,-8.93 4.92,-1.51 9.45,-3 14.16,-4.9 4.66,-1.87 9.01,-4.46 12.9,-6.06 -0.74,-0.91 -0.21,-0.39 -1.19,-1.22 -1.37,-1.15 0.78,0.47 -0.87,-0.65 -10.13,-6.9 -25.43,-4.6 -36.2,-1.75 -56.73,15.01 -68.25,50.12 -89.16,52.91 -19.22,-18.64 -12.57,-14.45 -6.57,-22.86 14.99,-21.01 3.09,-36.07 13.37,-53.06 12.23,-20.22 25.09,-29.25 49.05,-29.99 7.75,-0.24 16.61,0.27 22.73,-3.57 4.32,-2.7 9.02,-9.18 9.37,-15.93 -12.87,-2.13 -49.93,7.57 -60.37,12.33 -10.27,4.69 -14.42,8.42 -20.35,16.4 -3.29,4.43 -4.4,6.16 -9.37,9 -3.22,1.85 -9.3,4.58 -13.42,5zm-75.73 -56.98c1.54,-14.13 5.94,-32.93 13.47,-41.98 11.23,-13.5 59.56,-32.51 81.17,-25.33 11.1,3.7 22.52,17.09 25.66,28.96 -21.48,1.58 -41.19,2.2 -53.95,14.57 -8.73,8.46 -17.18,30.81 -29.51,38.85 -12.22,-4.36 -29.35,-12.53 -36.84,-15.07zm64.98 71.2c19.01,13.89 22.08,23.61 12.61,30.01 -6.66,0.34 -14.09,-1.34 -22.6,-5.88 -3.03,2.61 -6.65,-1.05 -10.07,-2.63 -3.84,-4.16 1.12,-8.63 20.06,-21.5z"/>
 </g>
</svg>
