<?xml version="1.0" encoding="UTF-8"?>
<!DOCTYPE svg PUBLIC "-//W3C//DTD SVG 1.1//EN" "http://www.w3.org/Graphics/SVG/1.1/DTD/svg11.dtd">
<!-- Creator: CorelDRAW 2017 -->
<svg xmlns="http://www.w3.org/2000/svg" xml:space="preserve" width="5.5878mm" height="5.5878mm" version="1.1" style="shape-rendering:geometricPrecision; text-rendering:geometricPrecision; image-rendering:optimizeQuality; fill-rule:evenodd; clip-rule:evenodd"
viewBox="0 0 558.78 558.78"
 xmlns:xlink="http://www.w3.org/1999/xlink">
 <defs>
  <style type="text/css">
   <![CDATA[
    .fil0 {fill:none}
    .fil1 {fill:black}
   ]]>
  </style>
 </defs>
 <g id="Capa_x0020_1">
  <metadata id="CorelCorpID_0Corel-Layer"/>
  <rect class="fil0" x="-0" y="-0" width="558.79" height="558.79"/>
  <g id="_2040394429952">
   <g>
    <path class="fil1" d="M156.81 308.27l1.88 -0.1c-1.74,-3.16 1.92,-1.28 -1.92,-3.32l-0.58 2.56c-0.01,-0.25 0.42,0.56 0.62,0.86z"/>
    <polygon class="fil1" points="234.48,44.01 238.24,43.19 236.37,41.05 "/>
   </g>
   <g>
    <path class="fil1" d="M340.71 58.3c0.83,-1.26 0,-0.09 1.25,-2.73l2.73 -5.09 -0.63 -8.07c-2.85,4.81 -3.54,8.52 -3.35,15.89z"/>
    <path class="fil1" d="M328.99 23.58c2.72,-3.65 0.65,0.63 1.72,-4.91 0.11,-0.56 0.11,-2.55 0.27,-3.1 1.45,-5.09 -3.61,-0.56 2.13,-3.71l-3.7 -1.69 -0.42 13.41z"/>
    <polygon class="fil1" points="95.04,274.17 100.98,273.87 99.73,270.98 94.66,270.88 "/>
    <path class="fil1" d="M234.76 48.46c0.77,-0.67 2.48,-1.75 3.2,-2.5l0.28 -2.77 -3.76 0.82 0.28 4.45z"/>
    <path class="fil1" d="M127.48 283.94l-2.86 -1.25 -3.48 1.63c1.52,0.77 0.2,1.07 3.39,1.09 5.43,0.05 1.41,-0.34 2.95,-1.47z"/>
   </g>
   <g>
    <path class="fil1" d="M344.69 50.48l-2.73 5.09c-1.25,2.64 -0.42,1.47 -1.25,2.73 0.62,14.75 -0.87,32.68 -15.98,32.67 -1.77,-11.68 4.52,-22.59 1.29,-38.52 -5.4,8.93 -0.99,44.57 -39.75,31.37l-0.74 -9.92 15.14 -4.46 -0.62 -13.48c-5.12,0.93 -4.05,1.74 -7.94,5.07 -2.98,2.54 -4.46,3.38 -8.47,5.13 -6.37,2.8 -12.85,4.42 -20.51,4.72 -20.38,0.8 -23.01,-6.28 -25.17,-24.92 -0.72,0.75 -2.43,1.83 -3.2,2.5 0.79,26.45 0.45,24.33 -16.32,35.4 -7.25,4.79 -26.45,15.97 -30.65,21.31l-0.3 1.89c9.94,-4 22.26,-12.89 29.24,-15.05 2.61,-0.81 3.22,-1.1 5.97,-1.04l4.49 0.99c0.28,-0.46 0.99,0.33 1.45,0.57 3.46,15.17 -27.8,56.61 -35.23,66.11 -24.68,31.54 -34.81,27.18 -57.78,42.04 17.85,2.34 32.65,-12.44 49.54,-10.9 1.22,22.66 -13.03,50.14 -24.36,59.79 -13.46,11.47 -37.72,20.25 -61.08,21.41l1.25 2.89c20.21,-0.35 30.83,-2.8 49.49,-4.56 -6.53,6.1 -15.12,10.12 -25.85,13.38l2.86 1.25c33.22,0.93 64.18,-36.02 115.31,-24.56 20.14,4.52 31.53,17.05 40.51,32.18 7.98,13.45 18.78,35.68 29.22,42.28 -5.6,-27.67 -13.26,-39.91 21.76,-44.18 100.18,-12.23 111.57,57.38 148.72,74.21 4.36,-12.43 6.04,-23.5 6.61,-37.93 47.06,6.63 73.48,107.48 18.7,174.98 -5.03,6.2 -12.65,17.02 -23.75,18.17 -28.15,2.91 -12.07,2.26 -25.09,15.77 -47.14,-20.15 -48.7,-71.83 -60.81,-93.04 -10.06,-17.59 -23.47,-25.15 -37.19,-38.91 -7,-7.02 -12.6,-11.07 -19.04,-19.89 -5.64,-7.71 -6.67,-18.67 -13.43,-24.24 0.29,22.31 11.2,39 10.99,59.62 -13.17,1.93 -21.56,2.41 -34.06,-2.2 -12.53,-4.61 -13.44,-9.86 -22.32,-15.11 -16.24,11 -21.25,16.32 -47.34,16.46 -44.43,0.22 -124.89,-30.02 -125.48,-61.98 10.64,-10.41 25.38,-7.42 39.31,-11.82 -22.96,-14.71 -54.11,0.28 -90.67,-24.43 -7.6,-5.14 -15.04,-9.35 -13.17,-21.68 9.4,-1.65 20.74,-0.59 28.28,-4.7l-6.81 -3.97c-41.25,-19.98 -16.95,-58.41 2.05,-93.25 13.72,-25.15 37,-42.76 53.49,-59.9l55.64 -57.71c10.97,-9.56 18.63,-16.56 27.84,-28.05 23.51,-29.31 59.76,-32.53 97.15,-35.26 6.01,-0.44 12.49,-1.37 17.18,1.92 2.79,1.97 2.2,3.21 4.58,5.82 2.36,2.58 -0.31,0.31 1.97,1.32l1.36 -0.28 0.42 -13.41 3.7 1.69c5.51,1.58 7.59,4.13 9.92,8.47 4.24,-4 1.11,-3.84 6.53,-6.95 10.42,5.49 13.94,22.52 20.05,34.3 5.64,10.89 14.54,26.27 8.67,40.59l-7.26 -0.08c-4.18,-8.13 -8.65,-40.37 -14.03,-53.98 -0.16,18.48 14.99,63.24 -12.2,59.94l-0.1 -43.67zm72.84 508.21l-25.51 0c-10.7,-1.12 -21.85,-3.72 -34.26,-8.21 -44.36,-16.07 -35.48,-25.56 -55.52,-66.29 -9.6,-19.51 -6.77,-19 -19.48,-21.13 -10.32,-1.73 -27.41,-2.07 -38.01,-2.58 -22.78,-1.09 -45.1,-5.57 -65.41,-15.76 -39.7,-19.92 -33.35,-17.13 -63.15,-38.36 -10.51,-7.48 -34.96,-31.57 -40.52,-40.68 -9.81,-16.07 -10.75,-14.57 -31.23,-29.67 -8.57,-6.32 -11.82,-13.92 -20.27,-20.34 -14.1,-10.72 -16.12,-19.42 -16.18,-32.27l0 -0.62c0,-7.08 10.27,-18.97 13.23,-25.69 4.07,-9.26 5.66,-17.99 9.46,-27.76 4.25,-10.92 6.71,-17.28 11.69,-27.23l13.64 -23.59c16.63,-24.17 31.95,-33.45 47.89,-46.85l49.99 -44.75c4.62,-4.68 3.62,-5.2 8.92,-9.69 4.26,-3.6 5.72,-4.96 10.18,-8.43 11.64,-9.05 12.79,-14.09 18.82,-20.09 4.47,-4.44 5.98,-3.92 9.95,-8.67 5.26,-6.31 12.43,-15.6 19.95,-18.95 5.19,-2.31 8.64,-3.95 12.87,-5.74 16.35,-6.94 79,-15.24 96.38,-15.24 37.29,0 34.66,9.85 42.73,30.01 6.17,15.41 18.14,29.63 18.14,46.16 0,14.18 -1.84,13.53 -8.4,22.06 -16.51,21.48 -62.99,7.69 -81.94,4.06 -30.42,-5.83 -25.75,-15.46 -35.76,-13.6 -9.38,1.73 -22.19,15.98 -27.25,25.25 -3.29,6.03 -4.63,11.27 -8.28,17.09 -19.82,31.62 -18.06,48.01 -22.9,78.64 -1.93,12.21 -8.76,26.89 -11.62,39.16 22.75,0 51.05,-8.81 77.85,11.78 6.88,5.29 17.78,14.57 20.23,23.76 10.24,0 15.8,-0.57 24.38,-2.67 10.77,-2.63 18.14,-5.41 32.64,-4.83l35.58 2.82c2.65,0.58 8.38,1.83 10.95,2.59 12.94,3.81 45.25,23.31 53.7,35.95 24.73,-11.88 64.52,-4.55 81.74,26.51 4.82,8.68 7.9,19.1 10.6,30.01 5.88,23.73 7.34,23.25 7.43,44.59l0 2.14c0,57.54 -46.01,117.53 -102.11,131.38 -11.06,2.73 -21.2,4.75 -31.14,5.73z"/>
    <path class="fil1" d="M158.69 308.17l-1.88 0.1c6.89,32.33 51.14,55.29 86.63,60.47 21.21,3.09 18.24,6.59 31.63,15.12 5.2,-6.91 1.84,-14.96 10.23,-21.48 5.4,-4.2 12.87,-8.12 18.28,-12.18 -14.82,-3.78 -41.18,14.32 -85.66,-1.6 -20.66,-7.39 -53.49,-25.43 -59.23,-40.43z"/>
   </g>
   <path class="fil1" d="M187.49 107.06l0.3 -1.89 -4.29 1.39c1.69,1.16 -2.97,4.38 3.99,0.5z"/>
   <polygon class="fil1" points="95.04,274.17 94.66,270.88 90.83,273.38 "/>
  </g>
 </g>
</svg>
