<?xml version="1.0" encoding="UTF-8"?>
<!DOCTYPE svg PUBLIC "-//W3C//DTD SVG 1.1//EN" "http://www.w3.org/Graphics/SVG/1.1/DTD/svg11.dtd">
<!-- Creator: CorelDRAW 2017 -->
<svg xmlns="http://www.w3.org/2000/svg" xml:space="preserve" width="5.5878mm" height="5.5878mm" version="1.1" style="shape-rendering:geometricPrecision; text-rendering:geometricPrecision; image-rendering:optimizeQuality; fill-rule:evenodd; clip-rule:evenodd"
viewBox="0 0 558.78 558.78"
 xmlns:xlink="http://www.w3.org/1999/xlink">
 <defs>
  <style type="text/css">
   <![CDATA[
    .fil0 {fill:none}
    .fil1 {fill:black}
   ]]>
  </style>
 </defs>
 <g id="Capa_x0020_1">
  <metadata id="CorelCorpID_0Corel-Layer"/>
  <rect class="fil0" x="-0" y="-0" width="558.79" height="558.79"/>
  <rect class="fil0" x="-0" y="-0" width="558.79" height="558.79"/>
  <g id="_2274310820944">
   <g>
    <path class="fil1" d="M354.77 104.21c0,25.63 8.48,35.85 -4.21,44.88 -10.9,7.76 -24,11.25 -32.72,-0.36 -16.05,-21.38 -11.35,-30.51 -11.35,-50.44l-0.5 -25.5c-0.05,-2.26 0.5,-1.73 0.5,-4.97 0,-5.41 -1.69,-6.44 -1.69,-11.85 0,-12 -1.53,-19.07 6.96,-27.74 13.52,-13.81 27.34,-4.97 37.82,3.31 5.79,4.58 12.64,10.01 14.76,18.3 2.72,10.66 -9.57,34.44 -9.57,54.37zm-89.2 -99.86l6.97 0c1.98,0.19 3.88,0.58 5.64,1.2 13.02,4.6 17.3,16.26 26.62,22.5 16.04,-23.94 40.5,-14.71 54.94,3.49 1.33,1.67 1.61,1.77 3.01,3.77 2.12,3.03 3.07,4.85 4.72,7.97 4.9,-2.59 7.1,-5.94 12.69,-8.48 4.08,-1.86 13.06,-2.59 17.98,-1.01 7.74,2.49 14.85,14.9 20.78,20.7 6.68,6.54 13.31,17.54 13.78,27.7 0.95,20.47 -1.24,16.42 6.29,35.19 2.55,6.36 3.65,12.63 3.86,19.05l0 5.13c-0.13,4.02 -0.54,8.11 -1.1,12.33 -0.71,5.35 -1.86,13.02 -2.26,18.9 -1.45,21.7 -2.47,25.92 -6.19,45.44 -0.45,2.38 -0.77,6.16 -1.42,8.73 -0.86,3.39 -1.76,4.77 -2.92,8.09 -0.98,2.81 -1.5,5.11 -2.3,7.86 -4.4,15.23 -12.8,28.6 -18.65,43.13 -2.15,5.32 -5.04,8.78 -7.53,13.64 -2.35,4.58 -3.77,9.26 -5.23,15.08 -9.41,37.29 -1.52,116.95 -1.52,159.27l0.85 20.31c0.36,6.6 -0.62,13.56 0.35,19.96 1.72,11.35 0.49,27.95 0.49,40.13l-18.63 0c0,-18.88 0.79,-35.66 0.82,-55.04 0,-5.44 0.92,-7.57 0.88,-13.5 -0.02,-4.51 -0.01,-9.03 -0.01,-13.55 0,-14.03 1.63,-17.44 1.73,-25.35 0.07,-5.71 -0.46,-9.19 -0.84,-13.62 -0.48,-5.54 0.58,-8.33 0.81,-12.65 0.23,-4.33 -0.09,-9.18 -0.04,-13.58 0.06,-4.97 0.93,-6.94 0.89,-12.65 -0.06,-9.64 0.89,-16.87 0.83,-27.1 -0.03,-5.69 0.83,-7.68 0.89,-12.65 0.06,-4.49 -0.03,-9.07 -0.03,-13.57 -14.84,-9.93 -28.12,-20.98 -46.22,-24.91l-19 -6.4c33.12,0 46.81,15.23 66.91,15.23 0.77,-9.23 6.73,-18.09 7.62,-28.77 -5.09,0 -14.6,-2.45 -18.96,-3.91 -17.84,-5.95 -27.51,-14.74 -47.58,-18.46 -14.05,-2.6 -26.49,-2.09 -42.72,-2.19 -7.32,-0.04 -13.73,1.36 -20.31,1.71 -6.9,0.37 -15,0 -22.03,0 3.72,-3.23 11.01,-3.61 16.04,-4.29 12.1,-1.62 24.11,-4.2 36.48,-4.17 20.21,0.06 36.65,-5.45 56.44,1.13 10.8,3.59 16.4,12.16 28.21,12.44 21.85,0.52 20.16,1.63 25.09,-15.63l14.03 -46.91c0.8,-2.47 0.95,-5.25 1.95,-8.2 3.01,-8.93 11.3,-31.4 11.48,-39.31 -8.7,0 -16.42,2.54 -29.65,2.54 2.12,-2.89 10.24,-5.96 14.13,-7.89 7.37,-3.67 21.4,-15.05 15.56,-25.16 -2.46,-4.25 -10.16,-4.19 -16.98,-4.19 1.66,-6.23 7.03,-3.8 10.16,-8.46l-3.39 0c0.57,-6.86 6.54,-2.05 6.78,-12.7 -3.2,1.54 -6.52,1.08 -9.5,3.21 -7.5,5.37 -10.67,15.42 -14.65,23.45 -15.45,31.2 -57.72,3.66 -86.53,52.32 -1.69,2.85 -2.06,5.62 -5.35,6.5 0,-8.63 -2.45,-23.85 -7.13,-30.97 -10.18,-15.47 -37.54,-13.9 -58.22,-30.68 -4.15,-3.36 -8.52,-9.49 -13.4,-12 -4.83,-2.48 -17.46,0.61 -21.46,2.29 -5.19,2.17 -10.9,8.49 -14.98,9.58 2.15,-9.2 9.96,-11.15 14.4,-17.77 -18.92,0 -19.48,7.39 -31.34,10.15 2.07,-7.73 13.67,-8.15 14.4,-16.92 -4.83,1.12 -16.74,9.42 -21.17,3.38 3.22,-0.27 15.69,-3.98 18.4,-5.31 8.35,-4.09 1.65,-8.93 1.08,-15.84 -10.74,0 -28.8,-6.88 -31.34,-17.78 15.28,8.08 18.42,23.21 46.88,9.61 13.99,-6.68 13.84,-12.2 20.6,-24.27 7.34,-13.09 20.95,-27.52 8.19,-42.33 -2.04,-2.36 -0.18,-1.29 -2.83,-2.25 0.61,7.35 4.45,15.17 0.54,21.7 -8.2,13.72 -49.66,15.2 -49.66,-9 -2.12,0 -4.67,-0.13 -6.74,0.04l-11.66 0.44c-1.62,0.06 -3.97,0.38 -6.14,0.38 -8.41,0 -16.29,1.41 -22.81,3.45 -8.54,2.67 -9.51,6.49 -11.11,15.98 -1.41,8.33 -1.68,14.59 -1.68,24.56 0,8.91 -0.16,16.87 1.08,26 4.44,32.56 -5.23,52.13 4.27,71.06 9.49,18.94 40.28,36.93 53.22,53.45 9.49,12.14 36.87,56.71 37.14,68.68 9.78,0 12.49,1.85 19.57,4.13 12.77,4.11 28.14,3.72 41.41,4.33 7.6,0.34 12.55,2.82 18.63,4.23l0 1.69c-2.67,-0.06 -7.43,-0.9 -10.51,-1.34 -17.03,-2.45 -34.81,2.8 -51.33,-5.41 -4.59,-2.28 -10.29,-5.94 -16.93,-5.94 0,18.04 -5.3,49.09 -8.1,68.07 -1.71,11.56 -2.58,22.36 -3.91,34.18 -2.45,21.8 -5.95,45.92 -7.52,67.79l-11.32 64.02c-3.68,22.03 -2.17,24.65 -7.8,24.9l-3.55 0 -0.48 0 -0.51 0c3.77,-7.85 10.31,-68.05 14.49,-76.96 1.67,-3.56 1.45,0.18 1.34,-4.08 -0.17,-6.82 0.41,-6.91 1.6,-14.09 2.33,-13.97 3.18,-26.95 5.07,-40.64l7.73 -60.83c1.9,-14 2.92,-26.86 4.87,-40.83 2.41,-17.3 3.11,-22.54 -5.18,-37.89 -7.99,-14.8 -14.84,-30.15 -25.2,-43.37l-16.37 -18.34c-13.46,-11.74 -30.21,-22.68 -40.88,-38.7 -2.78,-4.19 -5.45,-10.48 -6.72,-16.14 -1.71,-7.62 -0.65,-13.88 -0.08,-21.16 1.28,-16.3 0.35,-27.49 -0.87,-43.05 -0.26,-3.33 -0.55,-7.2 -0.78,-11.4l0 -27.67c0.68,-8.92 2.24,-17.29 5.33,-23.37 7.51,-14.82 39,-12.94 53.11,-12.94 0.83,-3.1 2.97,-5.41 5.42,-7.28 2.35,-1.8 4.4,-3.48 6.8,-5.06 14.35,-9.44 18.98,-0.3 28.3,-1.25 6.81,-0.7 22.21,-7.33 25.54,5.13 4.86,-1.14 10.14,-6.45 16.18,-8.38 2.55,-0.82 5.69,-1.49 8.96,-1.78zm137.47 44.01l0 0zm0 0c-3.7,-0.31 -5.6,-2.16 -10.16,-2.54 1.9,7.09 12.11,0.94 25.57,17.61 7.3,9.06 2.18,21.61 -1.74,33.28 -6.19,18.42 -13.48,47.37 -36.67,49.76 -13.36,1.38 -17.11,-13.57 -17.65,-25.33 -0.7,-15.33 -1.46,-25.6 2.03,-39.45 1.45,-5.77 2.97,-11.78 3.68,-17.47 1.12,-8.79 -0.87,-12.29 4.63,-17.38 3.51,-3.26 9.51,-5.96 15.9,-6.16 8.78,-0.27 11.48,2.14 14.41,7.68zm-193.95 -5.08c-10.3,0 -23.47,-1.34 -24.56,-14.39 4.32,0 8.45,-1.38 11.75,-2.64 8.32,-3.18 24.13,-12.38 31.02,-12.11 6.26,0.24 4.43,17.94 2.77,21.32 -2.52,5.13 -13.37,7.82 -20.98,7.82zm23.72 -26.24l0 0zm-48.28 4.24c3.31,-4.94 12.08,-7.62 20.33,-7.62 -5.95,5.17 -12.4,5.77 -20.33,7.62zm77.07 -5.08c7.2,0 7.54,0.55 13.56,-0.85l-3.39 -2.54c7.44,0.17 19.72,10.07 24.79,15.01 7.63,7.41 2.65,8.48 2.28,23.95 -0.1,4.06 0.88,4.59 0.88,9.28l-1.08 47.16c-0.71,5.2 -0.2,12.5 -1.2,16.58 -0.68,2.8 -0.55,2.89 -2.5,4.27 -3.07,2.17 -14.04,6.46 -18.94,6.46 -7.64,0 -15.72,-5.26 -21.28,-7.51 -13.47,-5.44 -14.36,-9.13 -14.27,-29.74 0.02,-5.08 -0.74,-9.89 -1.48,-13.75l-4.47 -25.16c0,-1.68 5.7,-9.68 6.81,-11.82 9.16,-17.75 -1.34,-23.55 4.99,-28.86 3.47,-2.91 7.42,-4.62 12.76,-5.87 0.74,2.09 0.6,-1.36 -0.46,0.9 0,0.01 -2.79,2.49 3,2.49zm0 -4.23l9.32 0 0 0.84 -9.32 0 0 -0.84z"/>
    <path class="fil1" d="M282.78 247.23c14.78,-3.44 31.59,-17.02 34.72,-30.46 -6.61,4.42 -9.23,12.72 -15.22,16.94 -3.83,2.7 -17.66,10.77 -19.5,13.52z"/>
    <path class="fil1" d="M311.57 121.98c1.96,2.67 0.4,1.29 4.77,2.01 9.89,1.62 22.14,-2.17 26.57,-8.78 -5.21,1.21 -9.96,1.75 -15.73,2.9 -5.44,1.08 -10.63,3.46 -15.61,3.87z"/>
    <path class="fil1" d="M255.68 121.14c2.27,-0.53 5.71,-2.54 7.62,-2.54 6.23,0 10.04,1.43 15.76,0.52 5.94,-0.94 10.12,-1.04 11.34,-5.6 -21.71,5.05 -29.11,-0.76 -34.72,7.62z"/>
    <path class="fil1" d="M374.25 61.05c5.73,0 14.76,-0.67 20.01,0.32 5.97,1.12 11.02,3.91 17.25,3.91 -0.15,-0.13 -0.38,-0.54 -0.45,-0.39l-1.4 -1.14c-7.78,-5.61 -19.32,-6.42 -28.62,-5.22 -1.95,0.25 -2.32,0.23 -3.58,0.65l-3.21 1.87z"/>
    <path class="fil1" d="M319.2 49.2c1.31,4.93 1.32,0.98 14.16,3.62 7.2,1.48 9.29,1.21 15.48,-0.23l0 -1.69c-6.73,0 -9.03,-0.22 -14.88,-1.21 -1.95,-0.33 -5.97,-1.18 -7.25,-1.25 -3.47,-0.2 -3.28,0.76 -7.51,0.76z"/>
    <path class="fil1" d="M251.44 37.35c0.63,0.44 0.37,0.47 1.59,0.96 0.76,0.3 26.86,4.14 30.59,-0.96 -3.83,-0.08 -3.36,-0.84 -7.62,-0.84 -5.47,0 -20.68,-0.66 -24.56,0.84z"/>
    <path class="fil1" d="M374.25 104.21c17.86,0 9.66,2.54 25.41,2.54l0 -1.69c-8.36,-0.19 -19.54,-8.86 -25.41,-0.85z"/>
    <path class="fil1" d="M320.04 41.59c0.77,0.66 -0.73,0.42 2.04,1.35 4.48,1.49 12.2,1.2 16.81,0.55 4.29,-0.6 4.44,0.67 7.41,-1.9 -5.08,-1.19 -21.69,-1.78 -26.26,0z"/>
    <path class="fil1" d="M327.67 138.06c2,0 3.53,-0.7 5.43,-1.34 3.18,-1.07 3.12,-0.7 4.73,-2.89 -4.71,0 -9.67,1.41 -13.26,0.56 -4.8,-1.13 -4.27,-3.81 -10.46,-3.94 2.95,4.4 9.3,7.61 13.56,7.61z"/>
    <path class="fil1" d="M381.87 119.44c5.59,0 8.21,0.75 9.32,-3.38 -14.56,0 -7.12,0.54 -20.33,-2.54 0.81,3.03 1.47,3.02 4.2,4.26 2.05,0.93 3.75,1.66 6.81,1.66z"/>
    <path class="fil1" d="M310.73 252.31c6.06,-3.21 15.94,-13.6 16.09,-20.31 -0.13,0.15 -0.33,0.2 -0.38,0.46 -0.06,0.27 -0.31,0.37 -0.39,0.46 -0.42,0.49 -0.57,0.71 -1.17,1.38 -0.85,0.94 -1.24,1.22 -2.09,2.13l-8.47 10.16c-2.58,2.33 -3.22,1.24 -3.59,5.72z"/>
    <path class="fil1" d="M257.37 22.97l0 1.69c4.27,0 5.2,0.88 10.15,0.86 3.96,-0.01 7.91,-0.01 11.87,-0.01 -2.12,-2.89 -2.37,-2.12 -6.65,-2.67 -3.74,-0.47 -11.13,-1.52 -15.37,0.13z"/>
    <path class="fil1" d="M333.59 35.66c6.44,0 6.83,-0.77 10.17,-0.84l-10.18 -2.52c-3.9,-0.15 -5.88,-0.87 -11,-0.87 0.69,1.89 -0.18,0.84 1.37,2.02 1.99,1.51 7.06,2.21 9.64,2.21z"/>
    <path class="fil1" d="M372.55 53.43l0 1.7c2.82,0 5.71,0.07 8.51,0.03l5.89 -0.88c2.5,-0.93 0.51,-0.1 1.7,-0.85 -10.19,-2.37 -5.91,-2.37 -16.1,0z"/>
   </g>
  </g>
 </g>
</svg>
