<?xml version="1.0" encoding="UTF-8"?>
<!DOCTYPE svg PUBLIC "-//W3C//DTD SVG 1.1//EN" "http://www.w3.org/Graphics/SVG/1.1/DTD/svg11.dtd">
<!-- Creator: CorelDRAW 2017 -->
<svg xmlns="http://www.w3.org/2000/svg" xml:space="preserve" width="5.5878mm" height="5.5878mm" version="1.1" style="shape-rendering:geometricPrecision; text-rendering:geometricPrecision; image-rendering:optimizeQuality; fill-rule:evenodd; clip-rule:evenodd"
viewBox="0 0 558.78 558.78"
 xmlns:xlink="http://www.w3.org/1999/xlink">
 <defs>
  <style type="text/css">
   <![CDATA[
    .fil0 {fill:none}
    .fil1 {fill:black}
   ]]>
  </style>
 </defs>
 <g id="Capa_x0020_1">
  <metadata id="CorelCorpID_0Corel-Layer"/>
  <rect class="fil0" x="-0" y="-0" width="558.79" height="558.79"/>
  <g id="_1891587815120">
   <path class="fil1" d="M310.9 58.34l2.11 4.12c18.8,-5.36 19.28,-3.99 25.64,-18.99l-9.13 -12.29 -9.34 2.07c4.08,5.43 4.28,5.08 6.02,12.85 -5.72,5.37 -9.35,7.42 -15.3,12.24z"/>
   <path class="fil1" d="M244.53 458.14l-5.92 -0.45c-14.59,10.7 -13.82,13.54 -19.58,25.89 18.68,-10.53 18.4,-10.34 25.5,-25.44z"/>
   <path class="fil1" d="M360.33 105.37c3.81,-16.55 11.68,-28.91 22.92,-35.41 0.02,0.02 16.16,6.31 3.3,26.53 -8.34,13.1 -11.24,10.78 -26.22,8.88zm-25.14 -16.42c9.31,-19.21 12.67,-33.25 26.01,-43.29l11.27 8.79c-0.22,10.38 -4.09,16.32 -8.68,23.81 -8.07,13.15 -6,8.43 -16.75,17.46l-11.85 -6.77zm-14.45 -68.06c-0.06,0.05 2.49,16.35 -21.81,0 0.73,-13.9 14.06,-4.64 21.81,0zm-0.56 12.36l9.34 -2.07c2.14,-11.36 -3.55,0.24 4.1,-7.45l14.13 5.63c5.86,16.36 -12.53,46.37 -32.23,50.78 -4.95,-7.61 -7.35,5.61 -2.51,-17.68l-2.11 -4.12 -16.32 -1.9c-13.88,3.65 -2.83,-0.29 -10.77,4.72 -0.72,0.45 -2.05,3.69 -2.56,2.8 -0.53,-0.92 -1.44,2.15 -2.18,3.21l-11.67 12.42c16.79,27.01 39.53,65.05 54.32,90.31 -27.51,10.54 -21.44,-14.22 -31.7,29.31 -4.07,17.26 -8.64,31.72 -10.9,48.79 10.61,-14.36 11.97,-26.28 19.74,-45.12 9.4,-22.82 10.8,-14.63 34.2,-23.94 -1.77,-25.99 -19.83,-50.15 -24.99,-74.92 7.94,6.07 25.75,24.43 34.24,27.49l2.74 -1.92 -1.36 -12.8 37.18 0.99c-5.69,97.54 -37.72,-1.65 -41.71,146.86 13.77,-28.07 17.57,-57.6 36.2,-89.34 10.47,-17.84 25.95,-79.37 27.46,-102.69 -27.86,-11.68 -11.94,-16.75 -42.57,-42.49 -15.34,-12.9 -35.93,-17.95 -58.28,-24.47l-25.1 17.25c-18.2,9.76 -44.6,42.76 -47.79,61.98 -7.06,42.54 40.44,47.62 16.81,105.63 -14.37,35.26 -27.51,67.34 -42.63,101.99 -11.6,26.56 -35.42,77.89 -40.27,101.66l42.87 -0.2 -49.91 159.18c13.43,-9.99 46.89,-74.97 55.05,-90.37 14.41,-27.2 38.03,-60.8 49.48,-89.61l-66.17 2.26c6.77,-42.09 81.42,-191.8 75.33,-217.44 -12.44,-52.47 -55.39,-54.71 0.58,-119.54 17.32,-20.06 24.27,-5.86 49.96,-5.19z"/>
   <path class="fil1" d="M238.61 457.69l5.92 0.45 152.29 -166.63 -129.05 21.27 84.07 0.77c-9.81,23.2 -92.15,112.29 -113.23,144.14z"/>
  </g>
 </g>
</svg>
