<?xml version="1.0" encoding="UTF-8"?>
<!DOCTYPE svg PUBLIC "-//W3C//DTD SVG 1.1//EN" "http://www.w3.org/Graphics/SVG/1.1/DTD/svg11.dtd">
<!-- Creator: CorelDRAW 2017 -->
<svg xmlns="http://www.w3.org/2000/svg" xml:space="preserve" width="5.5878mm" height="5.5878mm" version="1.1" style="shape-rendering:geometricPrecision; text-rendering:geometricPrecision; image-rendering:optimizeQuality; fill-rule:evenodd; clip-rule:evenodd"
viewBox="0 0 558.78 558.78"
 xmlns:xlink="http://www.w3.org/1999/xlink">
 <defs>
  <style type="text/css">
   <![CDATA[
    .fil0 {fill:none}
    .fil1 {fill:black}
   ]]>
  </style>
 </defs>
 <g id="Capa_x0020_1">
  <metadata id="CorelCorpID_0Corel-Layer"/>
  <rect class="fil0" x="-0" y="0" width="558.78" height="558.78"/>
  <g id="_2040219729072">
   <g>
    <path class="fil1" d="M249.47 37.96c3.69,10.27 5.73,23.71 9.3,34.79 1.85,5.76 5.48,10.77 3.02,17.27 -3.32,8.78 -1.38,8.35 -1.81,14.76 -0.04,0.62 -0.13,1.47 -0.29,2.07 -1.71,6.36 -11.15,2.68 -16.6,3.32 0.78,5.41 1.26,6.77 7.25,7.19 5.04,0.36 8.7,-1.14 13.24,-1.95l3.15 9.14c-17.09,11.21 -20.44,-0.27 -28.63,-8.08l-2.56 11.78c-8.37,3.17 -22.68,4.69 -24.25,-8.59 11.03,-2.81 11.96,1.94 19.89,-6.06l-2.65 -4.87c-13.68,3.56 -22.24,3.63 -29.94,-11.05 -11.12,-21.23 -16.21,-44.95 16.21,-44.5 1.89,8.42 6.23,19.6 9.06,28.3 1.56,4.78 3.2,9.36 4.72,14.09 1.64,5.11 2.23,10.83 7.9,11.92 5.09,-14.18 -37.45,-73.19 12.99,-69.53zm98.18 36.56c-11.01,4.89 -25.73,7.86 -33.04,-2.02 -7.63,-10.3 -7.52,-51.59 12.77,-44.7 15.63,5.31 21.89,28.98 20.27,46.72zm-77.63 9.07c-2.7,-7.42 -8.37,-32.97 -8,-40.89 0.41,-8.75 2.63,-12.05 10.26,-14.16 27.3,-7.56 34.31,24.66 30.7,40.56 -1.55,6.81 -6.31,10.44 -11.09,13.41 -4.69,2.91 -15.88,3.59 -21.87,1.08zm-13.18 -63.86c-5.76,-1.1 -7.48,-4.15 -15.36,-3.84 -4.6,0.19 -12.62,2.05 -17.01,3.3 -5.98,1.69 -8.51,3.48 -10.68,8.96 -3.56,9.04 -0.92,7.86 -10.77,9.7 -45.58,8.51 -22.13,46.12 -7.36,75.92 6.95,14.03 16.85,30.1 34.26,24.56 5.24,-1.67 7.31,-6.71 13.99,-4.98 5.02,1.3 9.32,4.97 15.39,4.7 4.73,-0.2 9.03,-4.67 12.86,-6.67 2.63,1.8 5.19,4.03 8.74,5.2 -2.36,10.02 -15.47,19.41 -14.74,41.9 0.52,15.94 10.25,30.18 24.18,32.03 -1.65,-18.58 -7.26,-22.64 1.37,-41.45 3.02,-6.58 5.54,-10.25 9.79,-14.73 1.81,-1.91 3.96,-4.13 6.37,-5.92 1.1,-0.81 2.41,-1.61 3.46,-2.25 0.78,-0.47 1.45,-0.82 2.07,-1.25l2.03 -1.64 -1.4 -15.55c-11.79,-0.9 -25,1.7 -34.28,-4.8 -4.18,-2.94 -4.52,-7.73 -7.36,-12.29 -2.77,-4.47 -2.79,-12.07 -2.32,-17.9 6.2,-0.08 12.29,-0.33 17.71,-2.05 3.69,-1.17 4.01,-2.04 6.91,-2.91 0.71,-0.21 1.26,-0.3 2.04,-0.51 9.33,-2.53 5.35,4.98 19.88,5.47 30.44,1.03 46.42,-31.4 53.02,33.49 4.69,46.14 -11.56,48.29 -33.53,85.6 -3.54,6.01 -13.92,20.79 -10.13,28.44 5.44,-5.22 6.93,-10.41 11.66,-16.29 4.78,-5.95 9.31,-9.25 14.14,-14.48 16.44,-17.8 39.7,-51.57 34.94,-79.04 -1.48,-8.52 -3.99,-14.23 -5.09,-23.44 -4.55,-37.88 -14.7,-30.16 -19.8,-38.38 -3.01,-4.84 -3.71,-16.99 -4.93,-23.65 -3,-16.27 -8.83,-31.08 -22.12,-35.22 -37.19,-11.55 -27.54,17.87 -40.68,3.09 -5.46,-6.15 -6.19,-7.92 -20.77,-6.21 -11.19,1.31 -12.74,4.2 -16.48,13.09z"/>
    <path class="fil1" d="M246.35 463.13c-0.34,-9.88 -18.04,-11.71 -27.78,-13.99 -11.59,-2.73 -12.7,-13.55 -15.6,-26.88 -19.72,-90.47 50.04,-210.81 2.44,-209.73 -5.44,22.63 -3.76,44.02 -11.47,75.53 -8.71,35.54 -10.15,32.54 -13.98,72.62 -2.33,24.37 -2.26,38.55 -1.1,62.33 0.57,11.71 -0.19,9.37 5.34,17.13 6.34,8.9 13.16,13.62 25.49,17.89 15.75,5.44 1.23,1.51 17.47,3.94 5.29,0.79 13.99,3.07 19.19,1.16z"/>
    <path class="fil1" d="M265.1 483.97c-10.93,-0.17 -34.07,-8.43 -43.59,-12.41 -12.82,-5.37 -22.3,-17 -39.36,-15.1 0.6,9.2 7.08,12.71 11.4,17.68 1.65,1.91 1.48,2.42 3.54,3.84l13.07 8.18c21.93,13.63 17.28,9.01 38.56,18.71l-1.38 13.89c2.49,2.31 8.06,6.32 11.19,6.52 19.56,1.27 30.45,3 51.36,1.96 10.76,-0.53 54.2,-2.25 53.46,-17.27 -12.44,-0.24 -21.74,4.74 -35.25,3.86 2.36,-5.04 8.86,-11.68 14.73,-13.87 8.63,-3.22 17.96,1.23 20.34,-7.5 -6.12,-3.58 -40.11,-2.65 -51.23,-5.07 -47.87,-10.44 -25.67,-3.09 -46.84,-3.42z"/>
    <path class="fil1" d="M313.53 453.31c1.78,2.13 11.24,3.02 14.56,3.02 22.94,-0.04 56,-0.5 56.84,-25.9 0.57,-17.62 -10.23,-51.16 -16.28,-65.94 -4.31,-10.54 -9.31,-17.99 -9.9,-31.17 -0.6,-13.32 -0.19,-25.98 -1.33,-39.46 -1.55,-18.29 -5.73,-55.01 -16.24,-65.64 -9.64,4.99 -5.08,19.91 -4.24,30.43 0.94,11.73 1.98,25.05 1.5,36.81 -0.47,11.64 -1.39,23.45 -2.08,35.14 -1.08,18.12 -2.05,16.81 4.92,31.81 5.17,11.12 20.71,44.08 15.96,57.86 -4.32,12.52 -16.09,24.46 -29.11,28.17 -8.56,2.44 -12.1,0.81 -14.6,4.87z"/>
    <path class="fil1" d="M246.32 525.3c-8.06,-5.4 -16.97,-9.7 -24.7,-14.59 -30.99,-19.61 -22.92,-22.95 -34.6,-34.1 -2.17,-2.07 -2.52,-2.76 -4.4,-5.42 -9.21,-12.99 -10.5,-18.02 0.96,-22.44 -3.75,-7.51 -13.04,-8.54 -23.09,-7.61 -5.5,30.5 9.37,48.11 25.93,59.78 9.31,6.57 46.6,27.73 59.68,29.09l0.22 -4.71z"/>
    <path class="fil1" d="M234.18 207.9c-1.79,-3.13 -3.83,-3.1 -7.97,-5.3 -27.51,-14.58 -33.13,-47.47 -20.04,-61.45 -1.49,-4.18 -12.69,-19.5 -15.5,-21.76 -4.26,5.62 -8.14,20.25 -8.94,28.82 -1.03,10.93 0.46,24.88 3.77,34.58 3.73,10.9 8.37,15.93 17.71,20.75 7.29,3.76 22.53,10.23 30.97,4.36z"/>
    <path class="fil1" d="M184.82 515.68c-2.45,-1.58 -3.01,-3.33 -3.96,-6.77 -1.84,-6.6 -2.69,-10.54 -10.93,-9.25 -0.96,5.67 2.34,16.51 2.97,22.98 0.82,8.46 0.28,17.86 0.76,26.64 8.16,-1.91 8.56,-15.37 9.9,-24.57 2.39,1.17 5.34,4.37 7.93,6.32 8.15,6.11 16.77,11.06 26.66,15.06 11.51,4.65 35.14,10.12 47.55,3.83 -1.98,-4.46 -4.14,-3.62 -9.48,-4.2 -10.67,-1.17 -22.34,-5.07 -31.68,-9.28 -8.03,-3.61 -27.67,-16.06 -32.76,-21.77 -1.3,0.63 -2.05,4.16 -6.96,1.01z"/>
    <path class="fil1" d="M306.01 464.4c1.37,5.33 3.45,4.67 14.71,5.29 6.57,0.37 13.1,0.48 19.67,0.06 11.58,-0.74 25.08,-4.53 35.97,-4.2 2.79,3.13 8.48,13.96 9.8,15.59 2.03,2.51 -0.37,0.72 2.47,1.99 5.37,-0.04 10.89,-0.95 10.81,-6.87 -0.06,-4.32 -2.33,-10.22 -4.19,-13.21 -5.61,-9.06 -13.08,-7.2 -26.71,-5.39 -10.28,1.36 -20.23,3.18 -30.6,3.77 -10.09,0.58 -25.14,-2.29 -31.93,2.97z"/>
    <path class="fil1" d="M270.97 254.44c4.69,2.3 3.71,1.8 6.06,7 1.83,4.02 1.66,5.76 6.41,7.15 -0.8,-7.89 -2.76,-14.8 -2.36,-23.08 0.6,-12.45 4.71,-18.42 -3.7,-19.39 -2.33,3.43 -6.54,23.06 -6.41,28.32z"/>
    <path class="fil1" d="M261.84 240.64l3.24 -17.94c1.21,-7.22 5.5,-12.73 -4.31,-14.16 -3.65,9.07 -5.8,24.32 1.07,32.1z"/>
    <path class="fil1" d="M301.52 97.46l-0.99 -4.69c-4.63,0.44 -10.48,2.06 -15.03,3.05 -4.62,1 -13.08,0.83 -10.74,6.63 2.92,7.21 26.04,-4.36 26.76,-4.99z"/>
   </g>
  </g>
 </g>
</svg>
