<?xml version="1.0" encoding="UTF-8"?>
<!DOCTYPE svg PUBLIC "-//W3C//DTD SVG 1.1//EN" "http://www.w3.org/Graphics/SVG/1.1/DTD/svg11.dtd">
<!-- Creator: CorelDRAW 2017 -->
<svg xmlns="http://www.w3.org/2000/svg" xml:space="preserve" width="5.5878mm" height="5.5878mm" version="1.1" style="shape-rendering:geometricPrecision; text-rendering:geometricPrecision; image-rendering:optimizeQuality; fill-rule:evenodd; clip-rule:evenodd"
viewBox="0 0 558.78 558.78"
 xmlns:xlink="http://www.w3.org/1999/xlink">
 <defs>
  <style type="text/css">
   <![CDATA[
    .fil0 {fill:black}
   ]]>
  </style>
 </defs>
 <g id="Capa_x0020_1">
  <metadata id="CorelCorpID_0Corel-Layer"/>
  <path class="fil0" d="M388.09 142.5c1.82,5.1 4.4,10.87 4.72,18 -0.77,-1.07 -0.7,-1.47 -2.14,-2.71 -4.23,-3.66 0.52,-1.6 -4.96,-2.03l2.38 7.94c-5.42,-0.23 -3.47,-1.34 -7.53,-4.24l-0.47 1.49c-0.77,4.03 0.34,2.82 -1.25,5.29l-12.18 1.52c-3.35,-3.39 -4.81,-0.15 -10.07,-0.55 1.96,5.13 3.33,4.84 5.31,8.54l-3.77 0.34c-2.69,-1.65 -7.6,-1.96 -15.4,-1.55 -2.77,0.15 -5.1,0.24 -7.66,0.76 -4.58,0.94 -4.87,1.68 -6.08,2.64l-13.82 5.02c-7.86,-11.85 -25.08,-8.77 -36.14,-2.32 -10.75,6.28 -19.13,13.11 -16.87,31.06 1.51,24.86 -1.62,18.85 -6.58,26.62 -7.27,9.13 -9.53,10.78 -19.99,17.41 -11.33,7.19 -17.76,3.15 -31.8,3.37 1.41,-9.49 15.74,-10.28 8.25,-35.24 -2.82,-9.36 2.83,-3.97 2.79,-18.32 -0.03,-10.69 -4.14,-11.64 -5.97,-17.35l20.99 -27.08c7.18,-9.78 3.13,-5.35 14.42,-10.14 32.55,-13.83 21.91,-13.6 27.24,-46.37 0.97,-5.98 6.75,-35.95 10.89,-38.27 6.8,-3.08 16.21,1.06 23.14,2.06l-8.48 37.21c-1.43,6.82 -2.18,4.21 -7.41,8.01 0.2,0.18 0.58,0.12 0.67,0.45 0.57,2.04 1.57,-0.46 2.68,1.87 -3.7,2.17 -3.86,1.91 -5.64,4.83 1.56,2.07 1.97,1.44 4.17,3.06 -1.63,2.18 -3.3,3.19 -3.34,6.58 21.13,3.63 11.23,-27.69 51.24,-42.58 25.35,-9.44 62.3,5.24 59.08,29.07l-5.69 3.55c-0.07,-0.08 -0.22,-0.64 -0.28,-0.51 -0.72,1.83 -0.6,-1.09 -0.73,-1.33l-1.37 -2.26 0.3 -2.87c-3.65,1.44 -2.18,2.51 -4.42,-0.53 -1.64,-2.21 -0.62,-1.85 -1.3,-2.99 -3.7,-6.24 -32.47,-22.77 -55.16,4.05 -1.76,2.08 -1.71,2.2 -3.1,4.04 -2.03,2.67 -2.74,2.56 -4.06,4.16 -3.59,4.36 -0.31,1.12 -2.27,4.94 -2.29,4.48 -1.97,-0.67 -2.94,4.62 12.38,4.24 20.95,8.63 30.35,19.67 6.47,7.61 6.63,4.96 14.87,0.44 5.98,-3.28 11.4,-4.64 17.15,-7.44 3.59,-0.24 2.75,-0.05 3.66,-1.7l4.57 -0.23zm-156.4 173.17l1.71 -3.64c2.92,-3.43 2.51,-8.52 2.15,-13.53 2.27,1.1 3.7,2.03 5.61,3.51l5.55 3.7c0.71,2.61 3.46,5.54 5.05,8.32 3.83,6.68 7.78,23.41 19.65,17.45 -2.17,-3.53 -5.33,-4.61 -7.97,-8.81 -4.34,-6.89 -9.11,-22.21 -20.48,-26.97l-5.52 -3.29c1.28,-2.05 1.41,-2.28 2.34,-4.33 1.79,-1.77 2.43,-3.1 4.16,-4.58 1.33,-1.16 2.82,-1.54 3.81,-3.28 7.68,-1.91 14.42,-5.91 20.67,-8.93 3.87,-1.87 3.79,-1.46 5.81,-3.94 3.29,-0.21 4.61,-1.01 6.8,-3.31l10.78 -9.74 1.91 -1.92 4.24 -1.7c4.27,-1.72 21.49,-2.28 20.58,-20.88 -5.03,0.81 -0.16,-0.17 -2.38,1.74 -2.52,1.02 -6.22,5.48 -7.12,8.88 -5.73,2.55 -11.75,3.87 -17.62,5.99l2.69 -12.32c-4.02,2.03 -5.68,5.21 -7.84,10.18l-1.32 5.24c-1.64,1.61 0.2,-1.08 -1.99,2.55 -0.61,1.01 -0.75,1.58 -1.39,2.71 -1.15,2.03 -2.08,3.08 -3.44,5.2l-6.28 3.72 -23.25 11.47c-4,1.3 -8.51,4.55 -11.09,7.64l-3.99 4.22c-0.81,-1.24 -1.38,-2.06 -2.23,-3.61 -1.69,-3.08 -0.12,-1.69 -2.43,-3.94 0.1,-4.82 -1.85,-9.43 -3.31,-13.29 2.23,-0.37 3.95,-0.59 6.11,-1.2 2.71,-0.75 3.23,-1.06 4.94,-2 10.06,-5.54 16.69,-11.51 23.6,-20.05l8.36 -9.9c2.88,-3.29 10.28,-13.01 10.47,-20 -5.26,-0.47 -3.79,1.7 -8.79,3.09 1.37,-9.83 3.96,-10.38 7.56,-17 -5.24,1.34 -4.08,2.2 -8.17,4.14 -0.02,-6.37 1.52,-8.55 5.05,-11.64 2.78,-2.44 7.66,-6.87 11,-5.76 1.06,2.26 -0.51,3.78 -1.29,5.31 5.09,-2.07 4.07,-1.4 8.19,1.04l-1.82 7.55c0.14,-0.12 0.46,-0.38 0.62,-0.53l3.03 -3.2c4.59,-3.91 14.81,-1.05 23.31,-6.43l3.58 -0.49c2.28,4.69 -0.53,3.62 4.08,5.32 0.49,-5.3 3.61,-9.03 6.79,-10.57 5.38,-2.62 10.72,-2.02 16.8,-1.74l13.7 0.93 3.38 1.26c0.39,0.1 2.73,0.51 3.43,0.64 3.19,0.61 5.05,1.11 8.34,1.53 30.74,5.84 41.93,-25.77 62.28,-24.13 -2.43,5.67 -2.37,7.91 0.62,14.74 4.56,10.41 4.48,6.09 9.86,9.06 -0.46,3.76 -0.47,3.14 -2.58,5.17 -12.15,-4.69 -10.26,-21.16 -16.35,-23.77 -9.14,4.02 -1.72,16.83 2.68,22.04l4.42 5.41c0.09,-0.18 0.31,0.58 0.44,0.88 -12.56,3.97 -7.65,-4.95 -18.03,-7.87 1.35,5.58 4.07,7.28 6.39,11.24 -5.62,-1.97 -6.86,-6.8 -12.59,-8.32l3.21 9.69c-2.66,-1.65 -4.75,-5.52 -6.96,-7.48 -2.34,3.76 -0.9,0.29 -0.94,3.2 -0.05,3.65 2.23,4.76 3.44,8.3 -6.7,1.44 -13.83,4.23 -20.93,5.95 -19.99,4.83 -45.03,4.93 -57.22,22.51l-10.47 16.13c-3.88,7.31 -3.49,13.32 -4.25,22.67 -1.76,21.78 -9.8,9.51 -9.69,42 0.07,23.05 7.95,25.01 -11.16,37.91 -6.04,4.08 -11.73,5.5 -15.27,11.32 -4.83,7.92 -4.26,9.09 -10.89,14.63 -9.15,7.62 -7.81,3.1 -19.02,2.02 -9.1,-0.87 -15.57,0 -21.88,4.08 -10.64,6.88 -19.19,15.03 -27.87,23.78 10.06,1.28 15.71,-4.69 21.07,-9.13 4.85,-4.02 10.88,-10.23 17.64,-11.86 -0.86,3.73 -4.29,8.29 -5.87,14.4 -1.23,4.76 -2.4,12.79 -4.57,15.91 -5.32,7.71 -15.6,10.35 -16.77,25.26 7.42,-1.67 8.96,-6.85 13.09,-11.57 3.99,-4.58 8.17,-6.62 10.91,-12.56 6.24,-13.56 2.1,-22.21 14.33,-31.6 5.83,-1.66 16.02,9.37 30.56,-11.41 8.52,-12.18 3.05,-9.97 23.52,-21.03 -1.16,4.83 -15.69,28.53 -18.83,31.86 -9.33,9.89 -16.85,11.86 -24.15,25.87 -9.13,17.51 -10.03,15.89 -11.92,39.05 -1.42,17.43 -9.64,21.94 -12.42,37.75 9.24,-4.89 17.74,-19.91 19.08,-34.79 0.78,-8.59 0.29,-17.03 3.3,-24.51 2.43,-6.03 6.95,-11.44 9.02,-17.65l1.75 5.12c1.86,10.99 4.89,22.09 1.29,32.75 -2.38,7.04 -18.96,25.75 -5.25,31.3 3.5,-6.44 1.34,-9.56 4.3,-15.89 2.6,-5.56 5.03,-6.33 6.8,-12.59 5.44,3.31 8.78,12.32 10.36,18.18 2.68,9.92 -0.35,17.52 1.67,26.08 7.57,-0.72 7.16,-13.08 6.18,-20.88 -1.06,-8.46 -3.65,-13.61 -6.21,-20.68 21.62,2.61 20.87,23.49 31.17,26.2 1.31,-12.14 -8.44,-21.95 -14.67,-26.73 -7.85,-5.99 -10.17,-2.82 -25.49,-14.96 -0.5,-10.65 -2.74,-26.42 -4.85,-35.76 4.32,-6.1 8.96,-7.55 14.58,-13.34 4.01,-4.14 7.65,-11.07 11.14,-16.46 7.36,-11.36 13.43,-22.98 13.73,-40.59 3.3,2.14 6.26,5.63 11.98,9.1 3.86,2.35 8.36,6.07 10.26,10.21 -4.9,9.26 -12.26,12.48 -17.26,21.61 -4.19,7.65 -6.96,23.45 -3.52,31.63 6.25,-2.4 4.95,-9.87 5.72,-16.33l2.04 -5.54c2.36,8.19 6.83,12.7 8.82,20.75 2.06,8.39 0.46,17.53 2.77,25.86 15.77,-7.04 -3.56,-48.21 -8.75,-55.78l14.21 -14.64c4.8,8.48 -0.67,21.89 5.11,29.27 8.02,-3.17 5.23,-21.54 2.23,-29.93 -3.6,-10.07 -8.8,-15.41 -15.69,-21.03 -3.2,-2.61 -8.81,-4.71 -10.78,-7.57 -2.21,-3.19 -2.49,-10.52 -3.4,-14.9 -1.19,-5.73 -4.84,-8.91 -4.9,-13.37 -0.08,-5.1 1.67,-10.26 4.65,-13.48 4.58,1.97 15.84,11.85 20.61,15.56 6.83,5.31 14.36,8.35 21.14,13.59 20.78,16.06 12.44,17.23 17.12,35.98 5.7,22.81 -0.49,56.99 -7.09,77.37 -4.73,14.61 -14.73,34.12 -24.91,45.69l-1.9 -2.27c-2.02,-2.83 -2.37,-4.13 -5.53,-5.52 2.01,13.11 3.8,12.56 -1.32,24.52 -3.06,7.15 -5.67,13.62 -9.09,20.5 -14.59,29.31 -56.36,37.46 -81.77,23.47 -26.18,-14.41 -19.54,-19.37 -31.41,-26.73 0.17,-9.25 -2.73,-30.35 0.04,-36.39 3.18,-6.88 14.17,-10.82 15.54,-23.22 -9.37,2.83 -15.5,14.9 -22.35,21.32 -2.73,-8.59 1.36,-14.61 0.77,-24.5 -15.93,13.12 -5.03,29.29 -2.66,35.52 1.86,4.92 2.04,9.56 1.94,15.07l-2.94 -4.85c-2,-3.93 -4.16,-10.48 -8.38,-12.74 -1.88,4.99 -0.16,11.06 1.31,15.66 -4.08,-1.86 -15.12,-11.37 -19.74,-14.9 -13.63,-10.43 -25.27,-22.29 -37.31,-34.21 -4.86,-4.8 -8.84,-8.14 -12.69,-13.88l-2.87 -4.66c-0.91,-2.19 -1.69,-3.55 -2.72,-5.98 -0.45,-1.05 -0.74,-2.05 -1.18,-2.92 -0.68,-1.34 -0.92,-1.49 -1.46,-2.15l-7.02 -16.34 -4.89 -19.01c-0.7,-2.9 -0.88,-2.1 -1.2,-2.71 0.14,-19.32 -4.59,-13.64 -0.7,-46.88 4.08,0.12 3.88,1.38 10.26,1.01 -0.51,5.53 -0.81,11.61 1.43,15.9 3.19,-7.72 1.12,-19.11 10.18,-31.6 4.85,-6.68 14.32,-17.07 22.76,-20.54 -0.07,10.86 -10.47,15.9 -10,27.98l-1.59 4.76c-2.04,17.18 3.91,24.31 4.19,25.76 0.5,2.56 -0.41,8.13 -0.35,11.59l0.53 0.17c-2.55,3.27 -1.82,10.94 -0.34,14.81 1.58,4.12 0.71,1.86 2.2,2.87 1.92,-1.42 0.13,2.51 2.04,-3.04l1.7 -14.26 1.11 -4.02c3.57,8.21 6.98,5.81 12.1,11.17 -2.03,6.79 0.71,10.57 -2.58,18.49 -7.92,19.1 -2.95,38.67 9.17,46.07 1.77,-13.06 -6.84,-16.75 -6.1,-30.8 0.55,-10.61 6.96,-13.9 6.68,-28.86 5.07,2.4 4.47,4.82 9.42,8.05 6.16,-15.22 -20.28,-16.97 -23.36,-28.45 -1.41,-4.85 -2.73,-9.29 -5.62,-11.54 -5.82,-4.55 -5.27,0.35 -5.22,-10.96 1.44,-27.43 16.5,-27.86 12.35,-43.74 2.12,-3.09 4.5,-4.13 6.89,-6.99 6.09,-7.29 2,-1.94 9.46,-4.76 2.96,-1.12 6.02,-4.79 7.71,-6.67 4.45,-4.94 4.07,-1.59 9.43,-4.88 3.98,-2.45 3.57,-4.91 8.91,-5.69 18.52,-2.7 16.72,7.64 21.15,21.61 3.72,9.99 7.1,8.34 4.69,21.68l-1.2 2.64 -12.45 12.94c-3.81,3.41 -7.62,12.44 -6.78,18.88 5.1,-2.7 7.04,-10.8 11.17,-15.46l10.53 -10.52c0.11,-0.16 0.35,-0.35 0.42,-0.76 0.08,-0.43 0.29,-0.53 0.42,-0.8zm154.24 -179.95l-10.65 3.09 -20.32 9.28c-4.27,-3.4 -6.94,-6.82 -11.6,-10.56 -4.47,-3.58 -9.82,-6.2 -13.88,-9.62 1.38,-4.31 6.2,-9.99 8.69,-12.76 3.17,-3.54 7.84,-6.54 14.36,-8.07 21.39,-5.05 27.18,11 29.98,12.86 6.98,13.55 17.84,6.57 20.92,0.6 0.14,-0.14 0.36,-0.58 0.41,-0.44 0.04,0.14 0.33,-0.36 0.39,-0.45 12.87,-18.93 -35.84,-66.25 -87.48,-26.94l-12.13 11.27c1.02,-8.97 3.68,-19.22 6.27,-27.29 4.41,-13.72 -2.59,-14.78 -14.01,-17.22 -24.82,-5.31 -24.6,8.45 -28.47,26.79 -0.19,0.91 -0.51,2.67 -0.75,3.46l-1.68 3.41 -20.16 -34.84c-16.62,-41.43 -6.71,-54.43 -32.7,-50.99 -8.75,1.16 -14.91,3.63 -20.03,8.75 -12.68,12.7 4.52,10.16 6.07,41.4 -14.59,-3.43 -19.47,-5.87 -37.25,-4.5 -22.01,1.7 -37.29,4.81 -31.59,27.9 1.36,5.5 4.4,9.62 11.14,9.7 6.51,0.07 21.23,-7.3 35.83,-5.99 11.37,1.02 23.06,7.33 27.54,13.81 5.05,7.32 -1.81,7.62 -14.02,24.71 -18.99,26.58 -11.22,17.39 -23.16,38.15 -4.34,7.54 -3.61,5.17 -10.79,9.65 -22.39,13.96 -27.56,16.58 -40.18,41.58 -11.7,23.16 -15.25,37.74 -13.7,67.68 0.62,11.92 3.23,26.55 2.71,37.87 -0.45,9.55 -5.69,10.9 -4.46,36.72 0.52,11.03 2.22,26.04 4.87,36.43 3.96,15.53 8.64,20.93 11.27,30.06 1.1,2.3 1.69,3.7 2.71,5.94 0.42,0.92 0.9,2.11 1.33,2.77 1.32,2.02 1.23,1.55 2.2,2.24 1.39,9.88 36.85,42.06 45.57,49.13 12.24,9.93 43.91,32.03 51.78,42.23 3.83,4.96 6.27,9.07 11.34,12.17 16.47,10.09 31.46,18.3 53.78,15.87 38.85,-4.24 49.81,-25.24 62.48,-56.17 5.07,-12.37 19.56,-28.92 26.12,-44.34 10.53,-24.77 16.37,-46.93 16.03,-77.95 -0.1,-9.44 -5.37,-37.28 -3.8,-42.43 1.69,-5.55 5.43,-8.71 6.64,-17.05 4.4,-30.27 -19.69,-53.26 10.24,-47.43 16.89,3.28 18.87,-13.9 13.39,-25.9 2.76,-4.54 5.78,-6.38 7.61,-14.11 2.32,-9.82 -1.38,-12.37 -3.77,-16.96 8.79,-2.34 26.98,-6.34 33.8,-14.21 7.63,-8.81 -1.56,-31.03 -7.28,-36.01 -14.82,-12.87 -30.79,8.18 -46.95,16.52 -7.71,3.98 -9.8,3.76 -19.23,5 -2.55,-2.13 -5.29,-1.8 -9.17,-2.5 1.35,-3.21 -0.8,-0.15 1.73,-3.11l11.39 -2.65 11.48 -2.99c5.6,-2.14 4.91,-2.87 3.75,-9.47 -1.21,-9.95 -2.99,-19.51 -10.21,-22.84l-0.64 -0.8 -3.76 -0.45zm-152.19 -31.92c-2.39,4.05 -1.62,10.83 -0.05,15.71 3.49,10.79 3.4,10.84 7.92,10.41 2.47,-5 -2.39,-25.56 -7.87,-26.12zm73.13 81.33c-5.29,3.37 -10.73,2.53 -13.11,-2.95 5.09,-0.51 9.82,0.12 13.11,2.95zm-111.24 -28.6c1.3,4.56 0.55,9.74 2.54,13.82 2.16,4.41 6.38,6.05 5.61,11.48 -1.07,7.45 -4.55,4.3 0.56,13.02 2.92,4.99 3,8.61 2.38,14.94 -2.71,-2.21 -4.71,-8.07 -8.02,-11.23 -9.55,11.75 15.86,26.12 6.01,45.61 -3.55,-4.97 -1.09,-9.26 -9.16,-8.83 -2.54,7.97 8.05,23.75 -4.28,29.59 0.6,-6.54 1.19,-9.03 -1.72,-13.34 -8.87,3.22 0.76,15.72 -14.14,24.35 2.73,-23.73 -25.01,-19.2 -20.65,-9.72 6.11,2.43 7.71,-0.94 12.33,1.67 7.39,12.67 -17.32,25.1 -23.87,30.35 -7.6,6.1 -15.23,14.37 -20.15,22.77 -2.13,3.65 -2.74,6.37 -6.11,7.8 -5.83,-2.56 -4.98,-8.22 -4.5,-16.03 0.57,-9.3 4.74,-8.67 7.03,-15.63l-6.57 3.28 5.82 -13.22c-6.24,1.28 -4.23,3.35 -8.4,3.94 -0.72,-32.91 -4.09,-46.48 14.71,-80.58 10.58,-19.2 18.26,-25.13 38.04,-35.53 7.34,-3.86 12.49,-3.05 20.28,-5.5 0.38,-0.85 -0.37,-2.14 1.16,-3.64 1.91,-1.88 2.31,-0.49 4.31,-2.91 3.06,-3.69 -2.82,-6.24 6.79,-6.46zm39.58 -12.33c-3.39,2.91 -6.16,6.51 -9.28,10.94 -2.83,4.03 -5.09,9.64 -9.93,12.01l-1.61 -7.45c-3.62,3.4 -1.42,4.12 -5.48,7.19 -7.6,-3.8 -3.56,-12.46 -9.21,-16.53 -6.99,-5.03 -15.48,2.56 -20.2,3.88 1.43,-7.79 19.47,-32.27 24.31,-37.71 2.68,2.75 1.48,4.55 5.01,8.07 0.46,-13.67 -0.34,-12.19 9.55,-17.87 21.46,-12.34 21.2,-14.63 27.46,11.77 0.94,3.96 1.62,9.08 0.9,13.5 -0.9,5.59 -2.95,5.42 -8.56,6.23 -3.34,-4.31 -6.43,-7.52 -8.34,-13.87 -1.52,-5.02 -1.86,-14.25 -6.29,-15.47 -2.63,4.76 0.06,14.36 1.5,20.35 2.54,10.61 5.52,8.74 10.17,14.96zm-40.29 -120.51c6.15,-8.11 16.33,-10.58 29.8,-9.64 4.23,10.64 6.38,23.55 10.18,34.74 4.88,14.42 14.68,31.26 22.59,44.84 6.93,11.9 7.81,3.74 6.86,14.06 -1.39,14.92 1.1,28.17 -13.28,32.19 5.21,-12.37 1.49,-24.16 -3,-36.88 -6.55,-18.53 -15.58,-11.91 -27.65,-5.04l2.55 -4.92 -5.6 2.05 2.72 -7.3c-4.76,1.32 -5.41,2.96 -8.11,5.58 -5.53,-2.93 -8.23,-10.12 -25.39,-14.55 -13.68,-3.53 -24.5,-0.15 -37.37,2.42l-2.16 -7.39 -4.18 8.05 -1.96 -10.89c-2.29,1.22 -2.46,3 -4.36,4.87 -1.13,-10.38 2.72,-13.08 12.1,-14.57 8.43,-1.34 17.84,-1.44 26.59,-1.04 19.31,0.9 24.52,9.74 31.19,5.95 4.1,-2.33 4.36,-2.59 9.48,-4.69 -1.89,-1.28 -3.36,-1.08 -6.24,-1.1 1.25,-3.2 1.16,-2.6 3.85,-4.5l4.82 -3.9 -11.48 2.73c0.66,-4.43 1.32,-4.17 3.35,-7.57l-4.1 -2.65c-0.21,-0.11 -0.59,-0.24 -0.85,-0.41l3.18 -3.94 -2.68 -1.01c-6.15,-2.57 3.28,2.21 -1.51,-0.62 -0.19,-0.11 -0.46,-0.25 -0.64,-0.39l-2.97 -5.19c-0.9,-1.86 -4.04,-7.2 -5.73,-9.29zm138.77 241.97c-1.13,-17.01 0.05,-17.36 7.78,-28.71 2.39,-3.51 6.14,-6.43 10.05,-8.37 6.94,-3.44 6,0.73 10.79,3.61l-1.42 -7.57c6.47,2.33 6.98,7.03 10.56,11.75 -0.38,-6.71 -2.24,-8.73 -3.54,-14.42 15.11,-1.62 38.57,-7.92 41.08,-8.09 -0.13,5.12 -1.94,8.23 0.18,11.34 6.73,-6.83 3.22,-7.15 6.13,-12.89 3.84,5.17 3.06,14.57 -3.13,21.79 -7.41,8.64 5.49,12.43 0.07,23.57 -5.63,4.59 -13.37,-2.14 -25.55,2.84 -5.52,-3.19 -6.91,-6.39 -15.8,-8.31 1.89,6.16 4.91,8.01 7.38,12.51 -3.54,-0.72 -2.64,-2 -6.68,-1.52l-1.59 0.61c6.01,6.02 12.11,6.46 15.46,25.72 3.03,17.43 1.05,21.43 -3.76,34.64 -2.67,-1.18 -8.62,-7.88 -11.45,-10.2 -21.03,-17.27 -26.4,-8.64 -29.05,-34.84 -1.87,-1.17 -1.4,0.42 -3.59,-1.02 -1.19,-7.9 1.12,-11.3 0.53,-18.47l-4.45 6.03z"/>
 </g>
</svg>
